<svg viewBox="0 0 500 500" xmlns="http://www.w3.org/2000/svg">
  <defs>
    <radialGradient id="fade" cx="50%" cy="50%" r="50%">
      <stop offset="30%" stop-color="white" stop-opacity="1"/>
      <stop offset="100%" stop-color="white" stop-opacity="0"/>
    </radialGradient>
  </defs>

  <!-- Color wheel segments (HSV, full saturation, 1-degree steps) -->
  <!-- Red 0° -->
  <path d="M250,250 L250,30 A220,220 0 0,1 272,31 Z" fill="hsl(0,100%,50%)"/>
  <path d="M250,250 L272,31 A220,220 0 0,1 294,34 Z" fill="hsl(6,100%,50%)"/>
  <path d="M250,250 L294,34 A220,220 0 0,1 316,40 Z" fill="hsl(12,100%,50%)"/>
  <path d="M250,250 L316,40 A220,220 0 0,1 337,48 Z" fill="hsl(18,100%,50%)"/>
  <path d="M250,250 L337,48 A220,220 0 0,1 357,58 Z" fill="hsl(24,100%,50%)"/>
  <path d="M250,250 L357,58 A220,220 0 0,1 376,70 Z" fill="hsl(30,100%,50%)"/>
  <path d="M250,250 L376,70 A220,220 0 0,1 393,85 Z" fill="hsl(36,100%,50%)"/>
  <path d="M250,250 L393,85 A220,220 0 0,1 408,101 Z" fill="hsl(42,100%,50%)"/>
  <path d="M250,250 L408,101 A220,220 0 0,1 421,119 Z" fill="hsl(48,100%,50%)"/>
  <path d="M250,250 L421,119 A220,220 0 0,1 432,138 Z" fill="hsl(54,100%,50%)"/>
  <!-- Yellow 60° -->
  <path d="M250,250 L432,138 A220,220 0 0,1 440,158 Z" fill="hsl(60,100%,50%)"/>
  <path d="M250,250 L440,158 A220,220 0 0,1 446,179 Z" fill="hsl(66,100%,50%)"/>
  <path d="M250,250 L446,179 A220,220 0 0,1 469,206 Z" fill="hsl(72,100%,50%)"/>
  <path d="M250,250 L469,206 A220,220 0 0,1 468,228 Z" fill="hsl(78,100%,50%)"/>
  <path d="M250,250 L468,228 A220,220 0 0,1 470,250 Z" fill="hsl(84,100%,50%)"/>
  <path d="M250,250 L470,250 A220,220 0 0,1 468,272 Z" fill="hsl(90,100%,50%)"/>
  <path d="M250,250 L468,272 A220,220 0 0,1 462,293 Z" fill="hsl(96,100%,50%)"/>
  <path d="M250,250 L462,293 A220,220 0 0,1 453,313 Z" fill="hsl(102,100%,50%)"/>
  <path d="M250,250 L453,313 A220,220 0 0,1 441,332 Z" fill="hsl(108,100%,50%)"/>
  <path d="M250,250 L441,332 A220,220 0 0,1 427,349 Z" fill="hsl(114,100%,50%)"/>
  <!-- Green 120° -->
  <path d="M250,250 L427,349 A220,220 0 0,1 412,365 Z" fill="hsl(120,100%,50%)"/>
  <path d="M250,250 L412,365 A220,220 0 0,1 394,378 Z" fill="hsl(126,100%,50%)"/>
  <path d="M250,250 L394,378 A220,220 0 0,1 375,390 Z" fill="hsl(132,100%,50%)"/>
  <path d="M250,250 L375,390 A220,220 0 0,1 354,399 Z" fill="hsl(138,100%,50%)"/>
  <path d="M250,250 L354,399 A220,220 0 0,1 333,406 Z" fill="hsl(144,100%,50%)"/>
  <path d="M250,250 L333,406 A220,220 0 0,1 311,410 Z" fill="hsl(150,100%,50%)"/>
  <path d="M250,250 L311,410 A220,220 0 0,1 289,412 Z" fill="hsl(156,100%,50%)"/>
  <path d="M250,250 L289,412 A220,220 0 0,1 267,410 Z" fill="hsl(162,100%,50%)"/>
  <path d="M250,250 L267,410 A220,220 0 0,1 246,406 Z" fill="hsl(168,100%,50%)"/>
  <path d="M250,250 L246,406 A220,220 0 0,1 225,399 Z" fill="hsl(174,100%,50%)"/>
  <!-- Cyan 180° -->
  <path d="M250,250 L225,399 A220,220 0 0,1 204,390 Z" fill="hsl(180,100%,50%)"/>
  <path d="M250,250 L204,390 A220,220 0 0,1 185,378 Z" fill="hsl(186,100%,50%)"/>
  <path d="M250,250 L185,378 A220,220 0 0,1 167,365 Z" fill="hsl(192,100%,50%)"/>
  <path d="M250,250 L167,365 A220,220 0 0,1 151,349 Z" fill="hsl(198,100%,50%)"/>
  <path d="M250,250 L151,349 A220,220 0 0,1 137,332 Z" fill="hsl(204,100%,50%)"/>
  <path d="M250,250 L137,332 A220,220 0 0,1 125,313 Z" fill="hsl(210,100%,50%)"/>
  <path d="M250,250 L125,313 A220,220 0 0,1 116,293 Z" fill="hsl(216,100%,50%)"/>
  <path d="M250,250 L116,293 A220,220 0 0,1 110,272 Z" fill="hsl(222,100%,50%)"/>
  <path d="M250,250 L110,272 A220,220 0 0,1 108,250 Z" fill="hsl(228,100%,50%)"/>
  <path d="M250,250 L108,250 A220,220 0 0,1 110,228 Z" fill="hsl(234,100%,50%)"/>
  <!-- Blue 240° -->
  <path d="M250,250 L110,228 A220,220 0 0,1 115,207 Z" fill="hsl(240,100%,50%)"/>
  <path d="M250,250 L115,207 A220,220 0 0,1 123,187 Z" fill="hsl(246,100%,50%)"/>
  <path d="M250,250 L123,187 A220,220 0 0,1 133,168 Z" fill="hsl(252,100%,50%)"/>
  <path d="M250,250 L133,168 A220,220 0 0,1 146,150 Z" fill="hsl(258,100%,50%)"/>
  <path d="M250,250 L146,150 A220,220 0 0,1 161,134 Z" fill="hsl(264,100%,50%)"/>
  <path d="M250,250 L161,134 A220,220 0 0,1 178,119 Z" fill="hsl(270,100%,50%)"/>
  <path d="M250,250 L178,119 A220,220 0 0,1 197,106 Z" fill="hsl(276,100%,50%)"/>
  <path d="M250,250 L197,106 A220,220 0 0,1 217,95 Z" fill="hsl(282,100%,50%)"/>
  <path d="M250,250 L217,95 A220,220 0 0,1 238,87 Z" fill="hsl(288,100%,50%)"/>
  <path d="M250,250 L238,87 A220,220 0 0,1 259,81 Z" fill="hsl(294,100%,50%)"/>
  <!-- Magenta 300° -->
  <path d="M250,250 L259,81 A220,220 0 0,1 281,78 Z" fill="hsl(300,100%,50%)"/>
  <path d="M250,250 L281,78 A220,220 0 0,1 303,77 Z" fill="hsl(306,100%,50%)"/>
  <path d="M250,250 L303,77 A220,220 0 0,1 324,79 Z" fill="hsl(312,100%,50%)"/>
  <path d="M250,250 L324,79 A220,220 0 0,1 345,83 Z" fill="hsl(318,100%,50%)"/>
  <path d="M250,250 L345,83 A220,220 0 0,1 365,90 Z" fill="hsl(324,100%,50%)"/>
  <path d="M250,250 L365,90 A220,220 0 0,1 384,100 Z" fill="hsl(330,100%,50%)"/>
  <path d="M250,250 L384,100 A220,220 0 0,1 400,112 Z" fill="hsl(336,100%,50%)"/>
  <path d="M250,250 L400,112 A220,220 0 0,1 414,126 Z" fill="hsl(342,100%,50%)"/>
  <path d="M250,250 L414,126 A220,220 0 0,1 425,141 Z" fill="hsl(348,100%,50%)"/>
  <path d="M250,250 L425,141 A220,220 0 0,1 432,157 Z" fill="hsl(354,100%,50%)"/>
  <!-- close back to red -->
  <path d="M250,250 L432,157 A220,220 0 0,1 250,30 Z" fill="hsl(360,100%,50%)"/>

  <!-- White center fade overlay -->
  <circle cx="250" cy="250" r="220" fill="url(#fade)"/>

  <!-- Center white dot -->
  <circle cx="250" cy="250" r="28" fill="white"/>

  <!-- Degree markers and labels -->
  <!-- Red 0° -->
  <line x1="250" y1="30" x2="250" y2="10" stroke="white" stroke-width="2"/>
  <text x="250" y="7" text-anchor="middle" font-family="sans-serif" font-size="15" font-weight="bold" fill="#cc0000">Red 0°</text>

  <!-- Yellow 60° -->
  <line x1="440" y1="140" x2="458" y2="125" stroke="white" stroke-width="2"/>
  <text x="470" y="122" text-anchor="start" font-family="sans-serif" font-size="15" font-weight="bold" fill="#999900">Yellow 60°</text>

  <!-- Green 120° -->
  <line x1="437" y1="360" x2="455" y2="375" stroke="white" stroke-width="2"/>
  <text x="458" y="379" text-anchor="start" font-family="sans-serif" font-size="15" font-weight="bold" fill="#009900">Green 120°</text>

  <!-- Cyan 180° -->
  <line x1="250" y1="470" x2="250" y2="490" stroke="white" stroke-width="2"/>
  <text x="250" y="500" text-anchor="middle" font-family="sans-serif" font-size="15" font-weight="bold" fill="#009999">Cyan 180°</text>

  <!-- Blue 240° -->
  <line x1="63" y1="360" x2="45" y2="375" stroke="white" stroke-width="2"/>
  <text x="42" y="379" text-anchor="end" font-family="sans-serif" font-size="15" font-weight="bold" fill="#0000cc">Blue 240°</text>

  <!-- Magenta 300° -->
  <line x1="63" y1="140" x2="45" y2="125" stroke="white" stroke-width="2"/>
  <text x="42" y="122" text-anchor="end" font-family="sans-serif" font-size="15" font-weight="bold" fill="#cc00cc">Magenta 300°</text>

  <!-- Arrow indicating rotation direction -->
  <path d="M 250,68 A 182,182 0 0,1 408,159" fill="none" stroke="rgba(0,0,0,0.35)" stroke-width="2.5" stroke-dasharray="5,4"/>
  <polygon points="408,159 396,148 414,143" fill="rgba(0,0,0,0.35)"/>
  <text x="365" y="100" font-family="sans-serif" font-size="12" fill="rgba(0,0,0,0.5)" transform="rotate(30,365,100)">twist →</text>
</svg>
